<mxfile host="app.diagrams.net" modified="2023-08-29T11:18:10.425Z" agent="Mozilla/5.0 (Windows NT 10.0; Win64; x64) AppleWebKit/537.36 (KHTML, like Gecko) Chrome/116.0.0.0 Safari/537.36" version="21.6.9" etag="H9pXDS_1DmjwrplE9hh4" type="github">
  <diagram name="第 1 页" id="-1_aYlV6JSasWAmnzmtT">
    <mxGraphModel>
      <root>
        <mxCell id="0" />
        <mxCell id="1" parent="0" />
      </root>
    </mxGraphModel>
  </diagram>
</mxfile>
